<svg xmlns="http://www.w3.org/2000/svg" viewBox="0 0 1600 1000" preserveAspectRatio="xMidYMid slice">
  <defs>
    <linearGradient id="bg2" x1="0%" y1="0%" x2="100%" y2="100%">
      <stop offset="0%" stop-color="#1A1A1A"/>
      <stop offset="100%" stop-color="#006241"/>
    </linearGradient>
    <linearGradient id="gold2" x1="0%" y1="0%" x2="100%" y2="100%">
      <stop offset="0%" stop-color="#D4AF37"/>
      <stop offset="50%" stop-color="#F4E5A1"/>
      <stop offset="100%" stop-color="#B8860B"/>
    </linearGradient>
  </defs>
  <rect width="1600" height="1000" fill="url(#bg2)"/>
  <g opacity="0.25" stroke="url(#gold2)" stroke-width="0.6" fill="none">
    <path d="M200 800 L 200 200 L 1400 200 L 1400 800 Z"/>
    <path d="M280 800 L 280 280"/><path d="M360 800 L 360 320"/><path d="M440 800 L 440 240"/>
    <path d="M520 800 L 520 360"/><path d="M600 800 L 600 280"/><path d="M680 800 L 680 200"/>
    <path d="M760 800 L 760 320"/><path d="M840 800 L 840 240"/><path d="M920 800 L 920 360"/>
    <path d="M1000 800 L 1000 280"/><path d="M1080 800 L 1080 200"/><path d="M1160 800 L 1160 320"/>
    <path d="M1240 800 L 1240 240"/><path d="M1320 800 L 1320 360"/>
  </g>
  <g transform="translate(800,520)">
    <text x="0" y="0" font-family="Georgia, serif" font-style="italic" font-size="80" fill="#F8F6F0" text-anchor="middle">Cobra Pay</text>
    <text x="0" y="50" font-family="Inter, sans-serif" font-size="14" fill="#F4E5A1" text-anchor="middle" letter-spacing="8">PAYMENTS · MANILA</text>
  </g>
</svg>
